<mxfile host="65bd71144e">
    <diagram id="6sNmb5E6TpXCLWxmJBOb" name="Page-1">
        <mxGraphModel dx="1668" dy="1280" grid="1" gridSize="10" guides="1" tooltips="1" connect="1" arrows="1" fold="1" page="1" pageScale="1" pageWidth="1169" pageHeight="1654" math="0" shadow="0">
            <root>
                <mxCell id="0"/>
                <mxCell id="1" parent="0"/>
                <mxCell id="6" value="" style="group;movable=1;resizable=1;rotatable=1;deletable=1;editable=1;connectable=1;" vertex="1" connectable="0" parent="1">
                    <mxGeometry x="240" y="50" width="1540" height="1720" as="geometry"/>
                </mxCell>
                <mxCell id="15" value="" style="group;movable=1;resizable=1;rotatable=1;deletable=1;editable=1;connectable=1;" vertex="1" connectable="0" parent="6">
                    <mxGeometry width="1540" height="1720" as="geometry"/>
                </mxCell>
                <mxCell id="79" value="" style="group" vertex="1" connectable="0" parent="15">
                    <mxGeometry x="610" y="220" width="365" height="810" as="geometry"/>
                </mxCell>
                <mxCell id="80" value="&lt;div style=&quot;background-color:#1e1f22;color:#bcbec4&quot;&gt;&lt;pre style=&quot;font-family:'JetBrains Mono',monospace;font-size:9.8pt;&quot;&gt;&lt;pre style=&quot;font-family: &amp;quot;JetBrains Mono&amp;quot;, monospace; font-size: 9.8pt;&quot;&gt;&lt;pre style=&quot;font-family:'JetBrains Mono',monospace;font-size:9.8pt;&quot;&gt;&lt;br&gt;&lt;/pre&gt;&lt;/pre&gt;&lt;/pre&gt;&lt;/div&gt;" style="rounded=0;whiteSpace=wrap;html=1;fillColor=none;movable=1;resizable=1;rotatable=1;deletable=1;editable=1;connectable=1;" vertex="1" parent="79">
                    <mxGeometry width="365" height="810" as="geometry"/>
                </mxCell>
                <mxCell id="81" value="&lt;pre style=&quot;color: rgb(188, 190, 196); font-size: 9.8pt; font-family: &amp;quot;JetBrains Mono&amp;quot;, monospace;&quot;&gt;SecurityFilterChain1&lt;/pre&gt;" style="rounded=0;whiteSpace=wrap;html=1;fillColor=none;" vertex="1" parent="79">
                    <mxGeometry width="165" height="23.823529411764703" as="geometry"/>
                </mxCell>
                <mxCell id="120" value="&lt;div style=&quot;background-color:#1e1f22;color:#bcbec4&quot;&gt;&lt;pre style=&quot;font-family:'JetBrains Mono',monospace;font-size:9.8pt;&quot;&gt;&lt;span style=&quot;color:#5f826b;font-style:italic;&quot;&gt;CsrfFilter&lt;/span&gt;&lt;/pre&gt;&lt;/div&gt;" style="rounded=0;whiteSpace=wrap;html=1;fillColor=none;movable=1;resizable=1;rotatable=1;deletable=1;editable=1;connectable=1;" vertex="1" parent="79">
                    <mxGeometry x="22.5" y="323.23" width="320" height="42.58" as="geometry"/>
                </mxCell>
                <mxCell id="121" value="&lt;div style=&quot;background-color:#1e1f22;color:#bcbec4&quot;&gt;&lt;pre style=&quot;font-family:'JetBrains Mono',monospace;font-size:9.8pt;&quot;&gt;&lt;span style=&quot;color:#5f826b;font-style:italic;&quot;&gt;LogoutFilter&lt;/span&gt;&lt;/pre&gt;&lt;/div&gt;" style="rounded=0;whiteSpace=wrap;html=1;fillColor=none;movable=1;resizable=1;rotatable=1;deletable=1;editable=1;connectable=1;" vertex="1" parent="79">
                    <mxGeometry x="22.5" y="365.80999999999995" width="320" height="42.58" as="geometry"/>
                </mxCell>
                <mxCell id="122" value="&lt;div style=&quot;background-color:#1e1f22;color:#bcbec4&quot;&gt;&lt;pre style=&quot;font-family:'JetBrains Mono',monospace;font-size:9.8pt;&quot;&gt;&lt;span style=&quot;color:#5f826b;font-style:italic;&quot;&gt;UsernamePasswordAuthenticationFilter&lt;/span&gt;&lt;/pre&gt;&lt;/div&gt;" style="rounded=0;whiteSpace=wrap;html=1;fillColor=none;movable=1;resizable=1;rotatable=1;deletable=1;editable=1;connectable=1;" vertex="1" parent="79">
                    <mxGeometry x="22.5" y="408.3899999999999" width="320" height="42.58" as="geometry"/>
                </mxCell>
                <mxCell id="123" value="&lt;div style=&quot;background-color:#1e1f22;color:#bcbec4&quot;&gt;&lt;pre style=&quot;font-family:'JetBrains Mono',monospace;font-size:9.8pt;&quot;&gt;&lt;span style=&quot;color:#5f826b;font-style:italic;&quot;&gt;DefaultLoginPageGeneratingFilter&lt;/span&gt;&lt;/pre&gt;&lt;/div&gt;" style="rounded=0;whiteSpace=wrap;html=1;fillColor=none;movable=1;resizable=1;rotatable=1;deletable=1;editable=1;connectable=1;" vertex="1" parent="79">
                    <mxGeometry x="22.5" y="450.97" width="320" height="42.58" as="geometry"/>
                </mxCell>
                <mxCell id="124" value="&lt;div style=&quot;background-color:#1e1f22;color:#bcbec4&quot;&gt;&lt;pre style=&quot;font-family:'JetBrains Mono',monospace;font-size:9.8pt;&quot;&gt;&lt;span style=&quot;color:#5f826b;font-style:italic;&quot;&gt;DefaultLogoutPageGeneratingFilter&lt;/span&gt;&lt;/pre&gt;&lt;/div&gt;" style="rounded=0;whiteSpace=wrap;html=1;fillColor=none;movable=1;resizable=1;rotatable=1;deletable=1;editable=1;connectable=1;" vertex="1" parent="79">
                    <mxGeometry x="22.5" y="493.55999999999995" width="320" height="42.58" as="geometry"/>
                </mxCell>
                <mxCell id="125" value="&lt;div style=&quot;background-color:#1e1f22;color:#bcbec4&quot;&gt;&lt;pre style=&quot;font-family:'JetBrains Mono',monospace;font-size:9.8pt;&quot;&gt;&lt;span style=&quot;color:#5f826b;font-style:italic;&quot;&gt;BasicAuthenticationFilter&lt;/span&gt;&lt;/pre&gt;&lt;/div&gt;" style="rounded=0;whiteSpace=wrap;html=1;fillColor=none;movable=1;resizable=1;rotatable=1;deletable=1;editable=1;connectable=1;" vertex="1" parent="79">
                    <mxGeometry x="22.5" y="536.1400000000001" width="320" height="42.58" as="geometry"/>
                </mxCell>
                <mxCell id="126" value="&lt;div style=&quot;background-color:#1e1f22;color:#bcbec4&quot;&gt;&lt;pre style=&quot;font-family:'JetBrains Mono',monospace;font-size:9.8pt;&quot;&gt;&lt;span style=&quot;color:#5f826b;font-style:italic;&quot;&gt;RequestCacheAwareFilter&lt;/span&gt;&lt;/pre&gt;&lt;/div&gt;" style="rounded=0;whiteSpace=wrap;html=1;fillColor=none;movable=1;resizable=1;rotatable=1;deletable=1;editable=1;connectable=1;" vertex="1" parent="79">
                    <mxGeometry x="22.5" y="578.72" width="320" height="42.58" as="geometry"/>
                </mxCell>
                <mxCell id="127" value="&lt;div style=&quot;background-color:#1e1f22;color:#bcbec4&quot;&gt;&lt;pre style=&quot;font-family:'JetBrains Mono',monospace;font-size:9.8pt;&quot;&gt;&lt;span style=&quot;color:#5f826b;font-style:italic;&quot;&gt;SecurityContextHolderAwareRequestFilter&lt;/span&gt;&lt;/pre&gt;&lt;/div&gt;" style="rounded=0;whiteSpace=wrap;html=1;fillColor=none;movable=1;resizable=1;rotatable=1;deletable=1;editable=1;connectable=1;" vertex="1" parent="79">
                    <mxGeometry x="22.5" y="621.3" width="320" height="42.58" as="geometry"/>
                </mxCell>
                <mxCell id="128" value="&lt;div style=&quot;background-color:#1e1f22;color:#bcbec4&quot;&gt;&lt;pre style=&quot;font-family:'JetBrains Mono',monospace;font-size:9.8pt;&quot;&gt;&lt;span style=&quot;color:#5f826b;font-style:italic;&quot;&gt;ExceptionTranslationFilter&lt;/span&gt;&lt;/pre&gt;&lt;/div&gt;" style="rounded=0;whiteSpace=wrap;html=1;fillColor=none;movable=1;resizable=1;rotatable=1;deletable=1;editable=1;connectable=1;" vertex="1" parent="79">
                    <mxGeometry x="22.5" y="706.46" width="320" height="42.58" as="geometry"/>
                </mxCell>
                <mxCell id="129" value="&lt;div style=&quot;background-color:#1e1f22;color:#bcbec4&quot;&gt;&lt;pre style=&quot;font-family:'JetBrains Mono',monospace;font-size:9.8pt;&quot;&gt;&lt;span style=&quot;color:#5f826b;font-style:italic;&quot;&gt;AnonymousAuthenticationFilter&lt;/span&gt;&lt;/pre&gt;&lt;/div&gt;" style="rounded=0;whiteSpace=wrap;html=1;fillColor=none;movable=1;resizable=1;rotatable=1;deletable=1;editable=1;connectable=1;" vertex="1" parent="79">
                    <mxGeometry x="22.5" y="663.8800000000001" width="320" height="42.58" as="geometry"/>
                </mxCell>
                <mxCell id="130" value="&lt;div style=&quot;background-color:#1e1f22;color:#bcbec4&quot;&gt;&lt;pre style=&quot;font-family:'JetBrains Mono',monospace;font-size:9.8pt;&quot;&gt;&lt;span style=&quot;color:#5f826b;font-style:italic;&quot;&gt;AuthorizationFilter&lt;/span&gt;&lt;/pre&gt;&lt;/div&gt;" style="rounded=0;whiteSpace=wrap;html=1;fillColor=none;movable=1;resizable=1;rotatable=1;deletable=1;editable=1;connectable=1;" vertex="1" parent="79">
                    <mxGeometry x="22.5" y="749.04" width="320" height="42.58" as="geometry"/>
                </mxCell>
                <mxCell id="131" value="&lt;div style=&quot;color: rgb(188, 190, 196);&quot;&gt;&lt;pre style=&quot;font-family: &amp;quot;JetBrains Mono&amp;quot;, monospace; font-size: 9.8pt;&quot;&gt;&lt;div style=&quot;&quot;&gt;&lt;pre style=&quot;font-family: &amp;quot;JetBrains Mono&amp;quot;, monospace; font-size: 9.8pt;&quot;&gt;&lt;div style=&quot;background-color: rgb(30, 31, 34);&quot;&gt;&lt;pre style=&quot;font-family:'JetBrains Mono',monospace;font-size:9.8pt;&quot;&gt;&lt;span style=&quot;color:#5f826b;font-style:italic;&quot;&gt;DisableEncodeUrlFilter&lt;/span&gt;&lt;/pre&gt;&lt;/div&gt;&lt;/pre&gt;&lt;/div&gt;&lt;/pre&gt;&lt;/div&gt;" style="rounded=0;whiteSpace=wrap;html=1;fillColor=none;movable=1;resizable=1;rotatable=1;deletable=1;editable=1;connectable=1;" vertex="1" parent="79">
                    <mxGeometry x="22.5" y="110.32" width="320" height="42.58" as="geometry"/>
                </mxCell>
                <mxCell id="132" value="&lt;div style=&quot;color: rgb(188, 190, 196);&quot;&gt;&lt;pre style=&quot;font-family: &amp;quot;JetBrains Mono&amp;quot;, monospace; font-size: 9.8pt;&quot;&gt;&lt;div style=&quot;&quot;&gt;&lt;pre style=&quot;font-family: &amp;quot;JetBrains Mono&amp;quot;, monospace; font-size: 9.8pt;&quot;&gt;&lt;div style=&quot;background-color: rgb(30, 31, 34);&quot;&gt;&lt;pre style=&quot;font-family:'JetBrains Mono',monospace;font-size:9.8pt;&quot;&gt;&lt;span style=&quot;color:#5f826b;font-style:italic;&quot;&gt;WebAsyncManagerIntegrationFilter&lt;/span&gt;&lt;/pre&gt;&lt;/div&gt;&lt;/pre&gt;&lt;/div&gt;&lt;/pre&gt;&lt;/div&gt;" style="rounded=0;whiteSpace=wrap;html=1;fillColor=none;movable=1;resizable=1;rotatable=1;deletable=1;editable=1;connectable=1;" vertex="1" parent="79">
                    <mxGeometry x="22.5" y="152.89999999999992" width="320" height="42.58" as="geometry"/>
                </mxCell>
                <mxCell id="133" value="&lt;div style=&quot;background-color:#1e1f22;color:#bcbec4&quot;&gt;&lt;pre style=&quot;font-family:'JetBrains Mono',monospace;font-size:9.8pt;&quot;&gt;&lt;span style=&quot;color:#5f826b;font-style:italic;&quot;&gt;SecurityContextHolderFilter&lt;/span&gt;&lt;/pre&gt;&lt;/div&gt;" style="rounded=0;whiteSpace=wrap;html=1;fillColor=none;movable=1;resizable=1;rotatable=1;deletable=1;editable=1;connectable=1;" vertex="1" parent="79">
                    <mxGeometry x="22.5" y="195.47999999999985" width="320" height="42.58" as="geometry"/>
                </mxCell>
                <mxCell id="134" value="&lt;div style=&quot;background-color:#1e1f22;color:#bcbec4&quot;&gt;&lt;pre style=&quot;font-family:'JetBrains Mono',monospace;font-size:9.8pt;&quot;&gt;&lt;span style=&quot;color:#5f826b;font-style:italic;&quot;&gt;HeaderWriterFilter&lt;/span&gt;&lt;/pre&gt;&lt;/div&gt;" style="rounded=0;whiteSpace=wrap;html=1;fillColor=none;movable=1;resizable=1;rotatable=1;deletable=1;editable=1;connectable=1;" vertex="1" parent="79">
                    <mxGeometry x="22.5" y="238.06" width="320" height="42.58" as="geometry"/>
                </mxCell>
                <mxCell id="135" value="&lt;div style=&quot;background-color:#1e1f22;color:#bcbec4&quot;&gt;&lt;pre style=&quot;font-family:'JetBrains Mono',monospace;font-size:9.8pt;&quot;&gt;&lt;span style=&quot;color:#5f826b;font-style:italic;&quot;&gt;CorsFilter&lt;/span&gt;&lt;/pre&gt;&lt;/div&gt;" style="rounded=0;whiteSpace=wrap;html=1;fillColor=none;movable=1;resizable=1;rotatable=1;deletable=1;editable=1;connectable=1;" vertex="1" parent="79">
                    <mxGeometry x="22.5" y="280.6499999999999" width="320" height="42.58" as="geometry"/>
                </mxCell>
                <mxCell id="5" value="WebApp" style="rounded=0;whiteSpace=wrap;html=1;fillColor=none;movable=1;resizable=1;rotatable=1;deletable=1;editable=1;connectable=1;" vertex="1" parent="15">
                    <mxGeometry width="148.43373493975903" height="30" as="geometry"/>
                </mxCell>
                <mxCell id="32" value="" style="endArrow=classic;startArrow=classic;html=1;exitX=0.448;exitY=0.011;exitDx=0;exitDy=0;exitPerimeter=0;entryX=0.485;entryY=0.987;entryDx=0;entryDy=0;entryPerimeter=0;" edge="1" parent="15" source="56" target="85">
                    <mxGeometry width="50" height="50" relative="1" as="geometry">
                        <mxPoint x="134.21746987951806" y="508.74" as="sourcePoint"/>
                        <mxPoint x="157.42999999999918" y="330.3154838709677" as="targetPoint"/>
                        <Array as="points"/>
                    </mxGeometry>
                </mxCell>
                <mxCell id="56" value="Servlet" style="rounded=0;whiteSpace=wrap;html=1;fillColor=none;" vertex="1" parent="15">
                    <mxGeometry x="60.00060240963856" y="423.9000000000001" width="222.65060240963857" height="30" as="geometry"/>
                </mxCell>
                <mxCell id="57" value="Controller" style="rounded=0;whiteSpace=wrap;html=1;fillColor=none;" vertex="1" parent="15">
                    <mxGeometry x="60.00060240963856" y="493.9000000000001" width="222.65060240963857" height="30" as="geometry"/>
                </mxCell>
                <mxCell id="58" value="" style="endArrow=classic;startArrow=classic;html=1;entryX=0.448;entryY=-0.02;entryDx=0;entryDy=0;exitX=0.448;exitY=0.989;exitDx=0;exitDy=0;exitPerimeter=0;entryPerimeter=0;" edge="1" parent="15" source="56" target="57">
                    <mxGeometry width="50" height="50" relative="1" as="geometry">
                        <mxPoint x="154.62710843373495" y="788.74" as="sourcePoint"/>
                        <mxPoint x="154.62710843373495" y="828.74" as="targetPoint"/>
                    </mxGeometry>
                </mxCell>
                <mxCell id="60" value="&lt;div style=&quot;background-color:#1e1f22;color:#bcbec4&quot;&gt;&lt;pre style=&quot;font-family:'JetBrains Mono',monospace;font-size:9.8pt;&quot;&gt;HttpFirewall&lt;/pre&gt;&lt;/div&gt;" style="rounded=0;whiteSpace=wrap;html=1;fillColor=none;movable=1;resizable=1;rotatable=1;deletable=1;editable=1;connectable=1;" vertex="1" parent="15">
                    <mxGeometry x="610" y="60" width="750.36" height="42.58" as="geometry"/>
                </mxCell>
                <mxCell id="62" value="" style="endArrow=classic;startArrow=classic;html=1;exitX=0.5;exitY=0;exitDx=0;exitDy=0;entryX=1;entryY=0.5;entryDx=0;entryDy=0;" edge="1" parent="15" source="60" target="85">
                    <mxGeometry width="50" height="50" relative="1" as="geometry">
                        <mxPoint x="650.8077108433735" y="556.45" as="sourcePoint"/>
                        <mxPoint x="520" y="308.7096774193551" as="targetPoint"/>
                        <Array as="points">
                            <mxPoint x="985" y="30"/>
                            <mxPoint x="480" y="30"/>
                            <mxPoint x="480" y="309"/>
                        </Array>
                    </mxGeometry>
                </mxCell>
                <mxCell id="63" value="" style="endArrow=classic;startArrow=classic;html=1;entryX=0.5;entryY=1;entryDx=0;entryDy=0;exitX=0.473;exitY=-0.002;exitDx=0;exitDy=0;exitPerimeter=0;" edge="1" parent="15" source="80" target="60">
                    <mxGeometry width="50" height="50" relative="1" as="geometry">
                        <mxPoint x="1145.722891566265" y="210" as="sourcePoint"/>
                        <mxPoint x="1113.2530120481927" y="109.68" as="targetPoint"/>
                    </mxGeometry>
                </mxCell>
                <mxCell id="82" value="&lt;div style=&quot;color: rgb(188, 190, 196);&quot;&gt;&lt;pre style=&quot;font-size: 9.8pt;&quot;&gt;&lt;font style=&quot;&quot; face=&quot;JetBrains Mono, monospace&quot;&gt;characterEncodingFilter&lt;/font&gt;&lt;/pre&gt;&lt;/div&gt;" style="rounded=0;whiteSpace=wrap;html=1;fillColor=none;movable=1;resizable=1;rotatable=1;deletable=1;editable=1;connectable=1;" vertex="1" parent="15">
                    <mxGeometry x="49.99610389610393" y="159.99741935483866" width="226.36363636363637" height="42.58064516129032" as="geometry"/>
                </mxCell>
                <mxCell id="83" value="&lt;div style=&quot;color: rgb(188, 190, 196);&quot;&gt;&lt;pre style=&quot;font-family: &amp;quot;JetBrains Mono&amp;quot;, monospace; font-size: 9.8pt;&quot;&gt;formContentFilter&lt;/pre&gt;&lt;/div&gt;" style="rounded=0;whiteSpace=wrap;html=1;fillColor=none;movable=1;resizable=1;rotatable=1;deletable=1;editable=1;connectable=1;" vertex="1" parent="15">
                    <mxGeometry x="49.99610389610393" y="202.5780645161289" width="226.36363636363637" height="42.58064516129032" as="geometry"/>
                </mxCell>
                <mxCell id="84" value="&lt;div style=&quot;color: rgb(188, 190, 196);&quot;&gt;&lt;pre style=&quot;font-family: &amp;quot;JetBrains Mono&amp;quot;, monospace; font-size: 9.8pt;&quot;&gt;requestContextFilter&lt;/pre&gt;&lt;/div&gt;" style="rounded=0;whiteSpace=wrap;html=1;fillColor=none;movable=1;resizable=1;rotatable=1;deletable=1;editable=1;connectable=1;" vertex="1" parent="15">
                    <mxGeometry x="49.99610389610393" y="245.15870967741938" width="226.36363636363637" height="42.58064516129032" as="geometry"/>
                </mxCell>
                <mxCell id="85" value="&lt;div style=&quot;color: rgb(188, 190, 196);&quot;&gt;&lt;pre style=&quot;font-family: &amp;quot;JetBrains Mono&amp;quot;, monospace; font-size: 9.8pt;&quot;&gt;&lt;pre style=&quot;font-family: &amp;quot;JetBrains Mono&amp;quot;, monospace; font-size: 9.8pt;&quot;&gt;FilterChainProxy&lt;/pre&gt;&lt;/pre&gt;&lt;/div&gt;" style="rounded=0;whiteSpace=wrap;html=1;fillColor=none;movable=1;resizable=1;rotatable=1;deletable=1;editable=1;connectable=1;" vertex="1" parent="15">
                    <mxGeometry x="49.99610389610393" y="287.73935483870963" width="226.36363636363637" height="42.58064516129032" as="geometry"/>
                </mxCell>
                <mxCell id="100" value="" style="endArrow=classic;startArrow=classic;html=1;exitX=0.5;exitY=0;exitDx=0;exitDy=0;entryX=0.5;entryY=1;entryDx=0;entryDy=0;" edge="1" parent="15" target="60">
                    <mxGeometry width="50" height="50" relative="1" as="geometry">
                        <mxPoint x="1232.5" y="220" as="sourcePoint"/>
                        <mxPoint x="990" y="100" as="targetPoint"/>
                    </mxGeometry>
                </mxCell>
                <mxCell id="101" value="&lt;div style=&quot;color: rgb(188, 190, 196);&quot;&gt;&lt;pre style=&quot;font-family: &amp;quot;JetBrains Mono&amp;quot;, monospace; font-size: 9.8pt;&quot;&gt;&lt;pre style=&quot;font-family: &amp;quot;JetBrains Mono&amp;quot;, monospace; font-size: 9.8pt;&quot;&gt;&lt;div style=&quot;&quot;&gt;&lt;pre style=&quot;font-family: &amp;quot;JetBrains Mono&amp;quot;, monospace; font-size: 9.8pt;&quot;&gt;RequestMatcher&lt;/pre&gt;&lt;/div&gt;&lt;/pre&gt;&lt;/pre&gt;&lt;/div&gt;" style="rounded=0;whiteSpace=wrap;html=1;fillColor=none;movable=1;resizable=1;rotatable=1;deletable=1;editable=1;connectable=1;" vertex="1" parent="15">
                    <mxGeometry x="632.5" y="270" width="320" height="42.58" as="geometry"/>
                </mxCell>
                <mxCell id="103" value="&lt;div style=&quot;color: rgb(188, 190, 196);&quot;&gt;&lt;pre style=&quot;font-family: &amp;quot;JetBrains Mono&amp;quot;, monospace; font-size: 9.8pt;&quot;&gt;&lt;pre style=&quot;font-family: &amp;quot;JetBrains Mono&amp;quot;, monospace; font-size: 9.8pt;&quot;&gt;Servlet&lt;/pre&gt;&lt;/pre&gt;&lt;/div&gt;" style="rounded=0;whiteSpace=wrap;html=1;fillColor=none;movable=1;resizable=1;rotatable=1;deletable=1;editable=1;connectable=1;" vertex="1" parent="15">
                    <mxGeometry x="269.99610389610393" y="359.9993548387096" width="226.36363636363637" height="42.58064516129032" as="geometry"/>
                </mxCell>
                <mxCell id="104" value="&lt;font color=&quot;#bcbec4&quot; face=&quot;JetBrains Mono, monospace&quot;&gt;User&lt;/font&gt;" style="rounded=0;whiteSpace=wrap;html=1;fillColor=none;" vertex="1" parent="15">
                    <mxGeometry x="290.00060240963853" y="440.0000000000001" width="222.65060240963857" height="30" as="geometry"/>
                </mxCell>
                <mxCell id="2" value="" style="points=[];aspect=fixed;html=1;align=center;shadow=0;dashed=0;image;image=img/lib/allied_telesis/computer_and_terminals/Personal_Computer.svg;" vertex="1" parent="1">
                    <mxGeometry x="60" y="110" width="45.6" height="61.800000000000004" as="geometry"/>
                </mxCell>
                <mxCell id="30" value="" style="endArrow=classic;startArrow=classic;html=1;exitX=0.5;exitY=0;exitDx=0;exitDy=0;" edge="1" parent="1" target="2">
                    <mxGeometry width="50" height="50" relative="1" as="geometry">
                        <mxPoint x="407.0779220779218" y="209.67741935483878" as="sourcePoint"/>
                        <mxPoint x="490" y="280" as="targetPoint"/>
                        <Array as="points">
                            <mxPoint x="317" y="141"/>
                        </Array>
                    </mxGeometry>
                </mxCell>
            </root>
        </mxGraphModel>
    </diagram>
</mxfile>